<?xml version="1.0" encoding="utf-8"?>
<!-- Generator: Adobe Illustrator 27.5.0, SVG Export Plug-In . SVG Version: 6.00 Build 0)  -->
<svg version="1.1" xmlns="http://www.w3.org/2000/svg" xmlns:xlink="http://www.w3.org/1999/xlink" x="0px" y="0px"
	 viewBox="0 0 500 500" style="enable-background:new 0 0 500 500;" xml:space="preserve">
	<g id="Background_Complete">
		<g>
			<g id="background-complete--inject-1">
				<g>
					<rect y="382.4" style="fill:#EBEBEB;" width="500" height="0.25"/>
					<rect x="150.04" y="388.78" style="fill:#EBEBEB;" width="23.18" height="0.25"/>
					<rect x="402.1" y="394.14" style="fill:#EBEBEB;" width="56.67" height="0.25"/>
					<rect x="42.72" y="394.14" style="fill:#EBEBEB;" width="56.67" height="0.25"/>
					<path style="fill:#EBEBEB;" d="M237,337.8H43.91c-3.15-0.005-5.7-2.56-5.7-5.71V60.66c0.027-3.13,2.57-5.655,5.7-5.66H237
					c3.153,0,5.71,2.556,5.71,5.71l0,0v271.38C242.71,335.243,240.153,337.8,237,337.8z M43.91,55.2
					c-3.012,0.006-5.45,2.448-5.45,5.46v271.43c0,3.012,2.438,5.454,5.45,5.46H237c3.013-0.005,5.454-2.447,5.46-5.46V60.66
					c-0.006-3.013-2.447-5.454-5.46-5.46H43.91z"/>
					<path style="fill:#EBEBEB;" d="M453.31,337.8h-193.1c-3.151-0.005-5.704-2.559-5.71-5.71V60.66
					c0.033-3.132,2.578-5.655,5.71-5.66h193.1c3.126,0.011,5.663,2.534,5.69,5.66v271.43C459,335.236,456.456,337.789,453.31,337.8z
					 M260.21,55.2c-3.013,0.006-5.454,2.447-5.46,5.46v271.43c0.005,3.013,2.447,5.454,5.46,5.46h193.1
					c3.013-0.005,5.454-2.447,5.46-5.46V60.66c-0.005-3.013-2.447-5.454-5.46-5.46H260.21z"/>
				</g>
				<rect x="429.037" y="413.312" style="fill:#EBEBEB;" width="21.6" height="0.25"/>
				<g>
					<path style="fill:#E6E6E6;" d="M468.142,293.292c-2.091-5.994-18.586,2.161-25.23,12.088
					c-4.453,6.613-7.171,13.676-8.433,23.162c0.147-10.842,0.325-22.458,0.488-33.423c1.355-2.734,4.437-9.045,6.66-14.04
					c7.403-16.681,25.006-22.884,31.085-33.416c7.969-13.8,7.922-34.492,1.138-41.957c-5.893-6.49-25.416,37.388-27.615,42.29
					c-7.558,16.867-9.758,29.381-11.175,41.5c0.155-10.307,0.31-19.763,0.441-27.104c0.41-23.813,0.929-31.472,1.162-33.826
					c0.821-1.154,1.781-2.493,2.323-3.214c4.724-6.079,15.209-13.32,20.444-22.163c7.651-12.909,6.412-28.359,1.045-34.074
					c-5.607-6.017-15.527,8.201-20.785,22.287c-5.258,14.086-3.02,27.569-4.491,39.27c-0.31,2.323-0.627,11.012-0.929,23.101
					c-1.595-13.01-4.778-21.722-10.671-29.846c-7.256-9.99-13.513-22.148-19.492-20.576c-5.978,1.572-2.757,17.664,1.975,28.963
					c4.205,10.067,24.975,20.096,28.033,28.18c-0.356,16.386-0.682,37.172-0.914,56.477c-1.634-9.982-0.511-10.842-7.217-26.105
					c-3.988-9.091-20.344-20.297-22.287-14.048c-1.921,6.126,1.014,18.044,7.186,26.33c4.979,6.668,16.03,6.66,18.586,10.795
					c0.596,0.968,2.563,4.646,3.694,6.792c-0.271,23.596-0.387,44.428-0.256,51.529l1.069,0.07
					c-0.046-1.828,0.085-13.831,0.294-29.722c2.679-8.449,20.746-13.382,26.33-22.171
					C466.446,311.22,470.643,300.486,468.142,293.292z"/>
					<path style="fill:#E6E6E6;" d="M451.151,382.937h-34.662c-1.884-0.011-3.501-1.343-3.872-3.19l-2.463-12.135h47.393
					l-2.463,12.135C454.71,381.617,453.059,382.956,451.151,382.937z"/>
					<path style="fill:#F0F0F0;" d="M458.508,372.312h-49.376c-1.187,0.008-2.189-0.881-2.323-2.06l-1.014-8.968
					c-0.145-1.275,0.77-2.426,2.045-2.572c0.092-0.01,0.185-0.015,0.278-0.015h51.405c1.283-0.008,2.33,1.025,2.338,2.308
					c0.001,0.093-0.004,0.186-0.015,0.278l-1.022,8.952C460.697,371.419,459.698,372.315,458.508,372.312z"/>
				</g>
			</g>
		</g>
	</g>
	<g id="Shadow">
		<ellipse style="fill:#F5F5F5;" cx="256.005" cy="432.822" rx="175.17" ry="13.825"/>
	</g>
	<g id="Character">
		<g>
			<rect x="159.751" y="277.693" transform="matrix(-1 -1.224647e-16 1.224647e-16 -1 324.4351 709.456)" style="fill:#263238;" width="4.933" height="154.069"/>
			<g>
				<g>
					<path style="fill:#407BFF;" d="M281.458,346.806h81.417c2.048,0,3.708-1.66,3.708-3.708v-3.871c0-2.048-1.66-3.708-3.708-3.708
					h-81.417V346.806z"/>
					<g>
						<line style="fill:none;stroke:#407BFF;stroke-width:2.8255;stroke-linecap:round;stroke-linejoin:round;stroke-miterlimit:10;" x1="359.737" y1="432.621" x2="353.837" y2="339.367"/>
						<line style="fill:none;stroke:#407BFF;stroke-width:2.8255;stroke-linecap:round;stroke-linejoin:round;stroke-miterlimit:10;" x1="337.145" y1="437.245" x2="331.246" y2="343.99"/>
						<line style="fill:none;stroke:#407BFF;stroke-width:2.8255;stroke-linecap:round;stroke-linejoin:round;stroke-miterlimit:10;" x1="277.941" y1="432.621" x2="283.841" y2="339.367"/>
						<line style="fill:none;stroke:#407BFF;stroke-width:2.8255;stroke-linecap:round;stroke-linejoin:round;stroke-miterlimit:10;" x1="300.533" y1="437.245" x2="306.432" y2="343.99"/>
					</g>
					<g>
						<path style="fill:#407BFF;" d="M288.683,339.367H370.1c2.048,0,3.708-1.66,3.708-3.708v-3.871c0-2.048-1.66-3.708-3.708-3.708
						h-81.417V339.367z"/>
						<path style="opacity:0.2;" d="M288.683,339.367H370.1c2.048,0,3.708-1.66,3.708-3.708v-3.871c0-2.048-1.66-3.708-3.708-3.708
						h-81.417V339.367z"/>
					</g>
				</g>
				<rect x="288.096" y="281.375" transform="matrix(-1 -1.224647e-16 1.224647e-16 -1 581.1263 716.8181)" style="fill:#263238;" width="4.933" height="154.069"/>
				<g>
					<g>
						<g>
							<path style="fill:#263238;" d="M304.901,293.099c0,0-56.351,2.117-65.714,24.745c0,0,1.3,67.364,8.843,89.472l16.126-1.821
							l-2.579-65.512l58.291-46.884H304.901z"/>
							<path style="opacity:0.2;" d="M304.901,293.099c0,0-56.351,2.117-65.714,24.745c0,0,1.3,67.364,8.843,89.472l16.126-1.821
							l-2.579-65.512l58.291-46.884H304.901z"/>
						</g>
						<g>
							<g>
								<polygon style="fill:#B55B52;" points="261.485,422.349 251.421,422.349 251.285,415.643 251.183,410.385 261.016,410.982 
								261.212,415.643 							"/>
								<polygon style="opacity:0.2;" points="261.212,415.643 251.285,415.643 251.183,410.385 261.016,410.982 							"/>
							</g>
							<polygon style="fill:#407BFF;" points="265.987,412.52 244.433,413.172 240.498,405.171 265.395,404.941 						"/>
							<g>
								<path style="fill:none;stroke:#407BFF;stroke-width:0.9418;stroke-miterlimit:10;" d="M248.842,423.867
								c0,0,0.514-5.906-1.537-5.086C245.234,419.609,247.541,422.625,248.842,423.867z"/>
								<path style="fill:none;stroke:#407BFF;stroke-width:0.9418;stroke-miterlimit:10;" d="M248.842,423.867
								c0,0-4.435-3.095-5.559-1.518C242.16,423.926,248.842,423.867,248.842,423.867z"/>
							</g>
							<path style="fill:#263238;" d="M252.351,420.99l7.958,0.084c1.159,0.012,2.126,0.924,2.219,2.091l0.56,7.076
							c0.104,1.312-0.926,2.412-2.228,2.374c-4.331-0.125-13.243-0.36-16.399-0.268c-4.233,0.123-10.239,0.189-11.098-1.416
							c-0.859-1.605,0.508-2.66,0.508-2.66s11.525-1.069,16.832-6.551C251.141,421.268,251.72,420.983,252.351,420.99z"/>
						</g>
					</g>
					<path style="fill:#263238;" d="M355.463,293.099c0,0,1.063,13.134,0.664,23.284c-0.46,11.698-25.647,22.009-62.32,16.027
					c0,0-2.861,19.767-13.005,37.973c-10.144,18.207-26.009,45.256-26.009,45.256l-15.605-10.144c0,0,20.547-56.96,24.449-72.826
					c3.901-15.866,5.462-23.408,16.646-28.35c11.184-4.942,35.633-11.22,35.633-11.22H355.463z"/>
					<g>
						<g>
							<polygon style="fill:#B55B52;" points="248.842,412.657 246.993,415.503 242.92,421.775 235.106,417.216 239.204,410.859 
							240.789,408.397 						"/>
							<polygon style="opacity:0.2;" points="248.842,412.657 246.993,415.503 239.204,410.859 240.789,408.397 						"/>
						</g>
						<polygon style="fill:#407BFF;" points="258.87,410.385 238.422,398.137 235.106,406.309 254.524,417.517 					"/>
						<g>
							<path style="fill:none;stroke:#407BFF;stroke-width:0.9418;stroke-miterlimit:10;" d="M229.765,417.517
							c0,0,1.49-5.122-0.186-5.215C227.902,412.209,229.765,417.517,229.765,417.517z"/>
							<path style="fill:none;stroke:#407BFF;stroke-width:0.9418;stroke-miterlimit:10;" d="M229.367,417.331
							c0,0-2.303-5.56-4.165-4.316C223.34,414.258,229.367,417.331,229.367,417.331z"/>
						</g>
						<path style="fill:#263238;" d="M236.119,416.662l6.821,4.025c0.993,0.586,1.366,1.839,0.855,2.872l-3.099,6.267
						c-0.574,1.162-2.02,1.581-3.124,0.902c-3.671-2.257-11.238-6.884-14.007-8.374c-3.713-1.999-8.926-4.927-8.854-6.712
						c0.072-1.785,1.785-1.999,1.785-1.999s10.48,4.82,17.832,2.818C234.935,416.296,235.578,416.343,236.119,416.662z"/>
					</g>
				</g>
				<g>
					<path style="fill:#B55B52;" d="M292.156,235.725c0,0-2.095,22.936-1.252,28.839c0,0-21.924,3.204-33.055,1.686l-7.421-1.855
					l-9.276,2.263l2.53,7.35h7.42c0,0,5.397,1.518,7.758,0c0,0,18.551,3.71,29.513,2.53c10.962-1.181,14.357-5.349,14.841-13.661
					c0.465-7.987,5.738-25.818,1.521-29.866L292.156,235.725z"/>
					<path style="fill:#407BFF;" d="M367.437,238.297c0,0-8.407-21.356-16.59-26.182c-8.182-4.825-46.053,4.406-46.053,4.406
					s-16.255,5.232-17.186,30.621l14.931,6.33l2.361,39.627h50.562l-0.272-51.333L367.437,238.297z"/>
					<path style="fill:#263238;" d="M305.484,174.657c0,0-5.008-0.624-6.364-4.379c-1.356-3.755,3.857-1.857,3.42-8.636
					c-0.437-6.778,7.349-8.405,13.013-5.423c5.664,2.982,14.612-0.271,18.001,3.796c3.389,4.067,1.898,7.863,1.898,7.863
					s9.716,10.985-2.598,18.507C320.54,193.908,305.484,174.657,305.484,174.657z"/>
					<path style="fill:#B55B52;" d="M334.884,211.208c-5.402,8.231-10.259,9.083-16.778,9.075c-7.302-0.026-4.857-5.198-4.857-5.198
					c3.059-1.525,5.291-3.17,5.641-6.936c0.068-0.758,0.085-1.5,0.051-2.198c-0.119-2.803-0.869-4.976-0.869-4.976
					c-10.353,0.937-14-4.116-15.295-13.642c-1.287-9.526,3.059-17.05,3.059-17.05c5.999,7.055,17.289,1.525,17.289,1.525
					c-3.17,9.177,4.593,12.466,4.593,12.466c3.051-1.883,5.402-0.238,5.172,3.408c-0.239,3.647-3.408,4.593-3.408,4.593
					C328.894,208.499,334.884,211.208,334.884,211.208z"/>
					<g>
						<path style="fill:#263238;" d="M308.691,191.059c-0.169,0-0.31-0.132-0.319-0.303c-0.01-0.176,0.126-0.327,0.301-0.336
						c3.615-0.195,5.028-1.93,5.042-1.947c0.109-0.138,0.309-0.162,0.448-0.054c0.139,0.109,0.164,0.308,0.056,0.447
						c-0.062,0.081-1.583,1.98-5.51,2.192C308.703,191.059,308.697,191.059,308.691,191.059z"/>
					</g>
					<path style="fill:#A02724;" d="M308.691,187.119l-0.586-6.069l-2.621,5.518C305.484,186.567,306.863,187.809,308.691,187.119z"
					/>
					<path style="fill:#263238;" d="M312.726,181.05c0,0.762,0.355,1.379,0.793,1.379c0.438,0,0.793-0.618,0.793-1.379
					c0-0.762-0.355-1.379-0.793-1.379C313.081,179.67,312.726,180.288,312.726,181.05z"/>
					<path style="fill:#263238;" d="M303.898,181.05c0,0.762,0.355,1.379,0.793,1.379c0.438,0,0.793-0.618,0.793-1.379
					c0-0.762-0.355-1.379-0.793-1.379C304.253,179.67,303.898,180.288,303.898,181.05z"/>
					<g>
						<path style="fill:#263238;" d="M317.968,177.958c-0.133,0-0.265-0.063-0.348-0.18c-0.054-0.075-1.357-1.836-4.404-1.276
						c-0.229,0.044-0.453-0.11-0.496-0.342c-0.043-0.231,0.111-0.453,0.343-0.496c3.601-0.663,5.188,1.529,5.253,1.623
						c0.136,0.193,0.088,0.458-0.104,0.593C318.137,177.934,318.053,177.958,317.968,177.958z"/>
					</g>
					<g>
						<path style="fill:#263238;" d="M303.346,177.44c-0.066,0-0.131-0.015-0.194-0.047c-0.21-0.107-0.293-0.364-0.186-0.573
						c0.954-1.87,3.238-1.587,3.333-1.572c0.233,0.032,0.396,0.245,0.365,0.478c-0.031,0.233-0.247,0.399-0.478,0.367
						c-0.072-0.008-1.784-0.214-2.461,1.115C303.65,177.355,303.5,177.44,303.346,177.44z"/>
					</g>
					<g>
						<path style="fill:#FFFFFF;" d="M302.672,185.784c-2.61,0-4.734-2.124-4.734-4.734c0-2.61,2.124-4.734,4.734-4.734
						c2.61,0,4.735,2.124,4.735,4.734C307.407,183.66,305.283,185.784,302.672,185.784z M302.672,176.955
						c-2.257,0-4.095,1.837-4.095,4.095c0,2.258,1.837,4.095,4.095,4.095c2.258,0,4.096-1.837,4.096-4.095
						C306.768,178.792,304.931,176.955,302.672,176.955z"/>
					</g>
					<g>
						<path style="fill:#FFFFFF;" d="M313.967,185.784c-2.61,0-4.734-2.124-4.734-4.734c0-2.61,2.124-4.734,4.734-4.734
						c2.61,0,4.735,2.124,4.735,4.734C318.702,183.66,316.577,185.784,313.967,185.784z M313.967,176.955
						c-2.258,0-4.095,1.837-4.095,4.095c0,2.258,1.837,4.095,4.095,4.095c2.258,0,4.096-1.837,4.096-4.095
						C318.063,178.792,316.225,176.955,313.967,176.955z"/>
					</g>
					<line style="fill:none;stroke:#FFFFFF;stroke-width:0.9418;stroke-miterlimit:10;" x1="307.407" y1="181.05" x2="309.233" y2="181.05"/>
					<line style="fill:none;stroke:#FFFFFF;stroke-width:0.9418;stroke-linecap:round;stroke-linejoin:round;stroke-miterlimit:10;" x1="318.394" y1="181.916" x2="327.258" y2="184.046"/>
					<path style="opacity:0.2;" d="M321.498,200.037c0,0-0.92,3.502-2.556,5.914c-0.119-2.803-0.869-4.976-0.869-4.976
					L321.498,200.037z"/>
					<polygon style="opacity:0.2;" points="302.54,253.472 302.539,247.142 299.982,252.387 				"/>
					<polygon style="opacity:0.2;" points="344.272,245.022 342.321,233.627 341.77,246.025 				"/>
					<path style="fill:#B55B52;" d="M358.223,268.921c-0.128,8.325-3.877,12.483-14.844,13.659
					c-10.958,1.184-29.508-2.531-29.508-2.531c-2.36,1.525-7.762,0-7.762,0h-7.422l-2.522-7.345l9.271-2.267l7.422,1.858
					c11.128,1.517,33.053-1.687,33.053-1.687c-0.631-4.422-1.34-18.845-1.638-25.585l13.077-3.868
					C358.636,249.948,358.334,261.737,358.223,268.921z"/>
				</g>
				<g>
					<path style="fill:#407BFF;" d="M164.766,225.416l8.858,45.11c0.396,2.018,2.165,3.473,4.221,3.473h74.931
					c2.678,0,4.705-2.42,4.235-5.057l-8.04-45.11c-0.366-2.052-2.151-3.547-4.235-3.547h-75.749
					C166.279,220.285,164.244,222.758,164.766,225.416z"/>
					<path style="opacity:0.2;" d="M245.874,220.285l9.361,53.714l0,0c1.397,0,2.454-1.262,2.209-2.637l-8.774-49.226
					c-0.191-1.07-1.121-1.85-2.209-1.85H245.874z"/>
					<path style="fill:#407BFF;" d="M174.505,278.306H289.74c0-1.187-0.487-2.268-1.263-3.044c-0.776-0.776-1.857-1.263-3.044-1.263
					H178.827C176.438,273.999,174.505,275.932,174.505,278.306z"/>
					<path style="opacity:0.2;" d="M251.673,278.306h38.067c0-1.187-0.487-2.268-1.263-3.044c-0.776-0.776-1.857-1.263-3.044-1.263
					h-29.437C253.606,273.999,251.673,275.932,251.673,278.306z"/>
					<path style="opacity:0.4;fill:#FFFFFF;" d="M201.731,248.819c0.806,5.615,4.687,9.703,8.668,9.131
					c3.981-0.572,6.555-5.586,5.749-11.201c-0.806-5.614-4.686-9.703-8.667-9.131C203.498,238.19,200.925,243.205,201.731,248.819z"
					/>
					<path style="opacity:0.2;" d="M174.505,278.306H289.74c0-1.187-0.487-2.268-1.263-3.044c-0.776-0.776-1.857-1.263-3.044-1.263
					H178.827C176.438,273.999,174.505,275.932,174.505,278.306z"/>
				</g>
				<path style="fill:#263238;" d="M127.303,283.893h198.998l0,0c0-3.934-3.189-7.123-7.123-7.123H134.426
				C130.492,276.77,127.303,279.959,127.303,283.893L127.303,283.893z"/>
			</g>
		</g>
	</g>
</svg>